<?xml version="1.0" encoding="UTF-8"?>
<svg version="1.1" xmlns="http://www.w3.org/2000/svg" width="339" height="240">
<path d="M0 0 C6.22369923 2.46918502 12.07283668 10.96895241 15.15625 16.85546875 C14.66606144 20.38138646 13.04267104 23.45470673 11.5390625 26.65234375 C11.01441406 27.77640625 10.48976563 28.90046875 9.94921875 30.05859375 C9.39878906 31.2290625 8.84835938 32.39953125 8.28125 33.60546875 C3.25577755 44.0417141 3.25577755 44.0417141 -0.84375 54.85546875 C-0.51375 55.51546875 -0.18375 56.17546875 0.15625 56.85546875 C-0.52124023 59.12353516 -0.52124023 59.12353516 -1.65234375 61.95703125 C-2.27302734 63.51732056 -2.27302734 63.51732056 -2.90625 65.10913086 C-3.36 66.22167236 -3.81375 67.33421387 -4.28125 68.48046875 C-4.73628906 69.61170166 -5.19132812 70.74293457 -5.66015625 71.90844727 C-8.56671528 79.03225701 -11.76022051 85.89488341 -15.34741211 92.69580078 C-17.88725266 97.62408746 -19.31386706 102.34468619 -19.84375 107.85546875 C-20.50375 107.85546875 -21.16375 107.85546875 -21.84375 107.85546875 C-20.70445179 122.20722532 -18.45616625 135.20345393 -7.84375 145.85546875 C-3.46739712 149.43955085 1.06497634 152.67444643 5.9921875 155.45703125 C6.70632812 155.91851562 7.42046875 156.38 8.15625 156.85546875 C8.15625 157.51546875 8.15625 158.17546875 8.15625 158.85546875 C22.61290923 162.71057788 35.73648895 161.03374449 49 154.13671875 C51.17796292 152.84256687 53.16161915 151.41490741 55.15625 149.85546875 C55.81625 150.18546875 56.47625 150.51546875 57.15625 150.85546875 C53.92854707 156.58566288 49.67416836 161.11585896 45.15625 165.85546875 C44.61097656 166.4278125 44.06570312 167.00015625 43.50390625 167.58984375 C32.74592892 177.77296732 17.02186177 182.31313505 2.48046875 181.9921875 C-15.15406193 180.95486217 -28.69443514 170.92124253 -40.18359375 158.28125 C-52.15158996 144.08457666 -57.50219805 125.79516065 -56.71875 107.35546875 C-55.15515595 90.75077975 -47.93398441 76.7147371 -40.84375 61.85546875 C-40.43930664 61.00758789 -40.03486328 60.15970703 -39.61816406 59.28613281 C-39.05307129 58.10229004 -39.05307129 58.10229004 -38.4765625 56.89453125 C-38.11062988 56.12713623 -37.74469727 55.35974121 -37.36767578 54.5690918 C-36.64441492 53.05381966 -35.91883385 51.53965277 -35.19091797 50.02661133 C-32.6564807 44.71354202 -30.33962916 39.32962457 -28.06469727 33.90087891 C-13.33702016 -1.04548675 -13.33702016 -1.04548675 0 0 Z M-3.84375 51.85546875 C-2.84375 53.85546875 -2.84375 53.85546875 -2.84375 53.85546875 Z M-4.84375 54.85546875 C-5.51729499 56.28975876 -6.18234701 57.72803932 -6.84375 59.16796875 C-7.215 59.96847656 -7.58625 60.76898438 -7.96875 61.59375 C-9.02415667 63.91760834 -9.02415667 63.91760834 -8.84375 66.85546875 C-5.74425335 66.1884751 -5.74425335 66.1884751 -4.67578125 63.859375 C-4.33933594 63.05371094 -4.00289062 62.24804688 -3.65625 61.41796875 C-3.31207031 60.61488281 -2.96789062 59.81179687 -2.61328125 58.984375 C-1.73043624 56.9192729 -1.73043624 56.9192729 -1.84375 54.85546875 C-2.83375 54.85546875 -3.82375 54.85546875 -4.84375 54.85546875 Z M-20.84375 89.85546875 C-19.84375 91.85546875 -19.84375 91.85546875 -19.84375 91.85546875 Z M-22.84375 94.85546875 C-21.84375 96.85546875 -21.84375 96.85546875 -21.84375 96.85546875 Z M-23.84375 96.85546875 C-22.84375 100.85546875 -22.84375 100.85546875 -22.84375 100.85546875 Z M-24.84375 100.85546875 C-23.84375 104.85546875 -23.84375 104.85546875 -23.84375 104.85546875 Z M-25.84375 105.85546875 C-25.84375 110.14546875 -25.84375 114.43546875 -25.84375 118.85546875 C-25.51375 118.85546875 -25.18375 118.85546875 -24.84375 118.85546875 C-24.84375 114.56546875 -24.84375 110.27546875 -24.84375 105.85546875 C-25.17375 105.85546875 -25.50375 105.85546875 -25.84375 105.85546875 Z M-24.84375 120.85546875 C-24.51375 123.16546875 -24.18375 125.47546875 -23.84375 127.85546875 C-23.15215599 126.00821823 -23.15215599 126.00821823 -22.84375 123.85546875 C-23.50375 122.86546875 -24.16375 121.87546875 -24.84375 120.85546875 Z M-22.84375 127.85546875 C-22.26740861 132.61028521 -20.29306479 135.82595087 -17.84375 139.85546875 C-17.51375 139.19546875 -17.18375 138.53546875 -16.84375 137.85546875 C-17.83871008 135.37729038 -17.83871008 135.37729038 -19.28125 132.73046875 C-19.75433594 131.82039062 -20.22742188 130.9103125 -20.71484375 129.97265625 C-21.08738281 129.27398437 -21.45992187 128.5753125 -21.84375 127.85546875 C-22.17375 127.85546875 -22.50375 127.85546875 -22.84375 127.85546875 Z M-16.84375 139.85546875 C-16.51375 140.84546875 -16.18375 141.83546875 -15.84375 142.85546875 C-15.84375 141.86546875 -15.84375 140.87546875 -15.84375 139.85546875 C-16.17375 139.85546875 -16.50375 139.85546875 -16.84375 139.85546875 Z M-14.84375 142.85546875 C-13.22637276 146.09022323 -12.36745777 147.56118896 -9.84375 149.85546875 C-9.18375 149.52546875 -8.52375 149.19546875 -7.84375 148.85546875 C-10.15375 146.87546875 -12.46375 144.89546875 -14.84375 142.85546875 Z M-5.84375 151.85546875 C-5.51375 152.51546875 -5.18375 153.17546875 -4.84375 153.85546875 C-4.18375 153.52546875 -3.52375 153.19546875 -2.84375 152.85546875 C-3.83375 152.52546875 -4.82375 152.19546875 -5.84375 151.85546875 Z " fill="#235D38" transform="translate(148.84375,46.14453125)"/>
<path d="M0 0 C16.8126466 10.85763284 22.80536897 27.96262283 30.05615234 45.68823242 C32.16470542 50.75625733 34.45745459 55.71524724 36.87109375 60.64453125 C37.17779495 61.2718515 37.48449615 61.89917175 37.80049133 62.54550171 C39.32639019 65.65889179 40.86537979 68.76496007 42.42260742 71.86279297 C52.890388 93.04489656 57.01499616 113.60862965 49.40234375 136.6484375 C41.53192243 157.09557937 27.07099147 170.87868739 7.40576172 179.69042969 C-2.89906247 184.06341029 -15.37647046 188.07051098 -26.56640625 185.52734375 C-26.56640625 184.86734375 -26.56640625 184.20734375 -26.56640625 183.52734375 C-25.59960938 183.23601562 -24.6328125 182.9446875 -23.63671875 182.64453125 C-7.84890516 177.74325201 7.0352756 169.33481572 15.19140625 154.27734375 C19.12147384 145.57681675 22.35743469 136.81637221 22.75 127.2265625 C22.8128418 125.76186523 22.8128418 125.76186523 22.87695312 124.26757812 C22.91626953 123.26017578 22.95558594 122.25277344 22.99609375 121.21484375 C23.06086914 119.67473633 23.06086914 119.67473633 23.12695312 118.10351562 C23.232662 115.57824806 23.33475843 113.05288813 23.43359375 110.52734375 C22.44359375 110.19734375 21.45359375 109.86734375 20.43359375 109.52734375 C19.40732856 106.92905384 18.57146247 104.45209333 17.80859375 101.77734375 C17.59203125 101.060625 17.37546875 100.34390625 17.15234375 99.60546875 C16.06036419 95.93857441 15.10185295 92.2992957 14.43359375 88.52734375 C13.77359375 88.52734375 13.11359375 88.52734375 12.43359375 88.52734375 C11.90765625 87.32078125 11.38171875 86.11421875 10.83984375 84.87109375 C8.01708342 78.519883 4.96701213 72.2799 1.93359375 66.02734375 C-4.40570248 52.96063111 -4.40570248 52.96063111 -6.6953125 47.70703125 C-11.71012724 36.28570567 -18.29505277 25.62114738 -25.31640625 15.33984375 C-25.8467749 14.5627002 -26.37714355 13.78555664 -26.92358398 12.98486328 C-29.87984015 8.73290988 -32.94745393 4.8459103 -36.57128906 1.1394043 C-37.56640625 -0.47265625 -37.56640625 -0.47265625 -37.22558594 -2.67260742 C-37.00805664 -3.26662354 -36.79052734 -3.86063965 -36.56640625 -4.47265625 C-24.41677015 -7.85996184 -10.80481062 -6.2000207 0 0 Z " fill="#B1CF3F" transform="translate(191.56640625,46.47265625)"/>
<path d="M0 0 C5.80301432 5.19331676 9.55573921 10.62727581 10.34765625 18.421875 C10.74166466 28.48424362 9.07523049 35.19331788 2.5625 42.875 C-3.99800102 48.31541548 -10.07773099 51.57202867 -18.83984375 51.234375 C-28.43441789 50.19337238 -34.61123968 46.20633477 -41 39 C-45.76521356 31.94647808 -47.01971857 24.20795703 -45.64453125 15.8359375 C-43.61877706 8.1407907 -38.34400357 1.7105441 -31.62109375 -2.484375 C-20.61361735 -7.62492236 -10.09485955 -6.75771589 0 0 Z M-14 3 C-12.9790625 3.7425 -12.9790625 3.7425 -11.9375 4.5 C-5.33304162 10.12081564 -1.03385428 15.85947175 2 24 C3.61528796 19.15413611 1.95991473 15.52724105 0 11 C-2.66986636 6.76503956 -5.35165405 4.83997027 -10 3 C-11.32 3 -12.64 3 -14 3 Z " fill="#424144" transform="translate(186,134)"/>
<path d="M0 0 C2.62326486 2.34220077 4.44960971 4.62644857 6.125 7.6875 C7.61616373 11.04061719 7.61616373 11.04061719 10 12 C10.28875 12.969375 10.5775 13.93875 10.875 14.9375 C11.63562455 18.09076959 11.63562455 18.09076959 13.90625 18.94921875 C16.44811111 20.22489158 17.20194929 21.44204234 18.625 23.875 C19.02976563 24.55304688 19.43453125 25.23109375 19.8515625 25.9296875 C20.23054688 26.61289063 20.60953125 27.29609375 21 28 C21.37898438 28.66257812 21.75796875 29.32515625 22.1484375 30.0078125 C23 32 23 32 23 36 C23.66 36 24.32 36 25 36 C25.33 35.34 25.66 34.68 26 34 C28.87979967 40.38564274 28.87979967 40.38564274 29.5625 43.875 C29.7790625 44.926875 29.7790625 44.926875 30 46 C30.66 46.33 31.32 46.66 32 47 C32.4140625 49.28515625 32.4140625 49.28515625 32.625 52.0625 C32.69976562 52.98160156 32.77453125 53.90070313 32.8515625 54.84765625 C32.90054688 55.55792969 32.94953125 56.26820312 33 57 C33.66 57 34.32 57 35 57 C38.55986674 62.4669382 40.32285111 67.93205626 42.0703125 74.20703125 C42.80197268 77.10036528 42.80197268 77.10036528 45 79 C45.66 78.67 46.32 78.34 47 78 C47 78.99 47 79.98 47 81 C47.99 81.33 48.98 81.66 50 82 C50 85.96 50 89.92 50 94 C49.34 94 48.68 94 48 94 C48.02320313 95.05960937 48.04640625 96.11921875 48.0703125 97.2109375 C48.08906944 98.5989513 48.10726972 99.9869727 48.125 101.375 C48.14175781 102.07367188 48.15851563 102.77234375 48.17578125 103.4921875 C48.19344267 105.32897486 48.10303261 107.16601963 48 109 C47.34 109.66 46.68 110.32 46 111 C46 105.06 46 99.12 46 93 C45.01 92.67 44.02 92.34 43 92 C41.97373481 89.40171009 41.13786872 86.92474958 40.375 84.25 C40.1584375 83.53328125 39.941875 82.8165625 39.71875 82.078125 C38.62677044 78.41123066 37.6682592 74.77195195 37 71 C36.34 71 35.68 71 35 71 C34.4740625 69.7934375 33.948125 68.586875 33.40625 67.34375 C30.58348967 60.99253925 27.53341838 54.75255625 24.5 48.5 C18.15900192 35.42977946 18.15900192 35.42977946 15.90625 30.23046875 C13.87721109 25.60132494 11.4769731 21.21475674 9 16.8125 C8.36191406 15.66104492 8.36191406 15.66104492 7.7109375 14.48632812 C5.81504883 11.09292002 3.89299553 7.77665263 1.6875 4.57421875 C0 2 0 2 0 0 Z " fill="#B3C45C" transform="translate(169,64)"/>
<path d="M0 0 C1 1 1 1 1.01953125 3.07421875 C0.43036415 10.51106389 -1.4017092 14.4017092 -6.75 19.75 C-11.85759434 23.28602685 -17.76096284 24.87056332 -24 24 C-26.52145882 21.81473569 -26.94447874 20.42566302 -27.375 17.125 C-26.6153331 10.79444249 -23.65503012 7.10674949 -18.80859375 3.2578125 C-13.12559634 -0.69450967 -6.68548271 -0.48973723 0 0 Z " fill="#B1C949" transform="translate(196,13)"/>
<path d="M0 0 C8.84291909 3.10442904 14.00918771 8.27258703 18.9375 16.0625 C21.38659655 22.77826162 21.16739253 31.2864427 19.05078125 38.01953125 C15.15852645 46.20922825 9.20554804 52.07201924 0.625 55.25 C-3.42361192 56.08764385 -6.87878863 56.14460391 -11 56 C-11.33 55.34 -11.66 54.68 -12 54 C-11.09378906 53.92523438 -10.18757812 53.85046875 -9.25390625 53.7734375 C-1.19167105 52.90322799 4.97031307 51.65628889 11 46 C12.90038049 43.31345292 12.90038049 43.31345292 14 41 C14.66 41 15.32 41 16 41 C18.11801449 33.64924383 19.56461786 24.12923572 16 17 C15.01 16.67 14.02 16.34 13 16 C13.2475 17.2684375 13.2475 17.2684375 13.5 18.5625 C14.01329288 22.09138856 14.07121346 25.43932689 14 29 C12.52433596 26.23077515 11.53909118 23.57702829 10.6875 20.5625 C9.26148389 16.26327322 7.69182442 13.78937845 4 11 C1.9803427 10.09490896 -0.02352347 9.3446803 -2.1328125 8.67578125 C-4 8 -4 8 -7 6 C-7 5.34 -7 4.68 -7 4 C-6.34 4 -5.68 4 -5 4 C-5 3.01 -5 2.02 -5 1 C-6.65 1.33 -8.3 1.66 -10 2 C-10.33 1.34 -10.66 0.68 -11 0 C-7.44675989 -1.77662005 -3.77799051 -0.82105265 0 0 Z " fill="#2D2C32" transform="translate(176,129)"/>
<path d="M0 0 C0.33 0 0.66 0 1 0 C1 1.65 1 3.3 1 5 C0.34 5 -0.32 5 -1 5 C-0.67 5.99 -0.34 6.98 0 8 C-0.66 8 -1.32 8 -2 8 C-2 8.66 -2 9.32 -2 10 C-1.34 10 -0.68 10 0 10 C-0.144375 10.53625 -0.28875 11.0725 -0.4375 11.625 C-4.29960875 27.93168137 -2.50560473 43.56500736 6 58 C11.13795745 65.73612911 19.15037457 70.35458887 27 75 C24 76 24 76 20.4375 74.625 C8.54007265 68.24903065 -0.42416738 56.6868634 -4.6875 43.9453125 C-5.16125054 42.30692522 -5.58635391 40.65458435 -6 39 C-6.66 39.66 -7.32 40.32 -8 41 C-10.81013629 24.52330161 -10.81013629 24.52330161 -7.7265625 17.69921875 C-6.80342308 15.84826966 -6.80342308 15.84826966 -7 13 C-6.34 13 -5.68 13 -5 13 C-4.80664062 12.31292969 -4.61328125 11.62585938 -4.4140625 10.91796875 C-4.02347656 9.56638672 -4.02347656 9.56638672 -3.625 8.1875 C-3.36976562 7.29417969 -3.11453125 6.40085938 -2.8515625 5.48046875 C-2 3 -2 3 0 0 Z M-4 13 C-3 15 -3 15 -3 15 Z M-5 15 C-4 19 -4 19 -4 19 Z M-6 19 C-5 23 -5 23 -5 23 Z M-7 24 C-7 28.29 -7 32.58 -7 37 C-6.67 37 -6.34 37 -6 37 C-6 32.71 -6 28.42 -6 24 C-6.33 24 -6.66 24 -7 24 Z " fill="#1B4129" transform="translate(130,128)"/>
<path d="M0 0 C2.62326486 2.34220077 4.44960971 4.62644857 6.125 7.6875 C7.61616373 11.04061719 7.61616373 11.04061719 10 12 C10.28875 12.969375 10.5775 13.93875 10.875 14.9375 C11.63562455 18.09076959 11.63562455 18.09076959 13.90625 18.94921875 C16.44811111 20.22489158 17.20194929 21.44204234 18.625 23.875 C19.02976563 24.55304688 19.43453125 25.23109375 19.8515625 25.9296875 C20.23054688 26.61289063 20.60953125 27.29609375 21 28 C21.37898438 28.66257812 21.75796875 29.32515625 22.1484375 30.0078125 C23 32 23 32 23 36 C23.66 36 24.32 36 25 36 C25.33 35.34 25.66 34.68 26 34 C28.87979967 40.38564274 28.87979967 40.38564274 29.5625 43.875 C29.7790625 44.926875 29.7790625 44.926875 30 46 C30.66 46.33 31.32 46.66 32 47 C32.40729228 49.32156597 32.74438677 51.6568787 33 54 C32.01 54.495 32.01 54.495 31 55 C30.34 54.01 29.68 53.02 29 52 C28.20464844 51.43410156 27.40929687 50.86820313 26.58984375 50.28515625 C23.36259174 47.43758095 22.09400855 44.35023364 20.5625 40.4375 C19.96073451 38.98673962 19.35524732 37.53751751 18.74609375 36.08984375 C18.4507373 35.38585449 18.15538086 34.68186523 17.85107422 33.95654297 C15.89601923 29.46204766 13.43477671 25.24670356 11 21 C9.82133589 18.92926119 8.6453747 16.85703921 7.47216797 14.78320312 C6.67538061 13.37617152 5.87508851 11.97111711 5.07080078 10.56835938 C3.10918118 7.11645735 1.35938268 3.74553313 0 0 Z " fill="#B9CE56" transform="translate(169,64)"/>
<path d="M0 0 C0.66 0.66 1.32 1.32 2 2 C-7.43214274 26.33725718 -7.43214274 26.33725718 -12.5 35.9375 C-15.43150893 41.49253833 -17.39498967 46.7078926 -18 53 C-18.66 53 -19.32 53 -20 53 C-19.36714379 45.15258297 -18.02710164 37.82896976 -14.3125 30.8125 C-12.76094884 28.02624396 -12.76094884 28.02624396 -13.0625 24.75 C-12.97693216 19.61592946 -11.08747626 15.63158796 -9 11 C-8.34 11.33 -7.68 11.66 -7 12 C-4.39954125 9.6975881 -3.15260817 7.50103323 -1.8125 4.3125 C-1.46832031 3.50425781 -1.12414062 2.69601563 -0.76953125 1.86328125 C-0.51558594 1.24839844 -0.26164062 0.63351563 0 0 Z " fill="#53665C" transform="translate(147,101)"/>
<path d="M0 0 C0.495 1.485 0.495 1.485 1 3 C0.07421875 4.82421875 0.07421875 4.82421875 -1.3125 6.6875 C-1.76238281 7.31011719 -2.21226562 7.93273437 -2.67578125 8.57421875 C-3.11277344 9.04472656 -3.54976562 9.51523438 -4 10 C-4.66 10 -5.32 10 -6 10 C-6 10.99 -6 11.98 -6 13 C-6.99 13 -7.98 13 -9 13 C-9.33 14.98 -9.66 16.96 -10 19 C-12.31 19 -14.62 19 -17 19 C-17.33 20.98 -17.66 22.96 -18 25 C-16.35 25 -14.7 25 -13 25 C-16.70070318 27.18982178 -20.6409582 27.90557665 -24.8125 28.6875 C-25.49892578 28.82994141 -26.18535156 28.97238281 -26.89257812 29.11914062 C-31.57653414 30.0098456 -35.31780171 29.91195757 -40 29 C-40 28.34 -40 27.68 -40 27 C-39.03320312 26.70867187 -38.06640625 26.41734375 -37.0703125 26.1171875 C-22.56982263 21.61555404 -7.47232011 14.00743396 0 0 Z " fill="#B8CA4E" transform="translate(205,203)"/>
<path d="M0 0 C0.66 0.33 1.32 0.66 2 1 C0.27738906 4.15812006 -1.68974393 7.01276333 -3.9375 9.8125 C-4.66259766 10.71935547 -4.66259766 10.71935547 -5.40234375 11.64453125 C-7 13 -7 13 -11 13 C-11 12.34 -11 11.68 -11 11 C-13.50037734 13.17424117 -14.43628586 14.73045798 -15 18 C-16.32 18.33 -17.64 18.66 -19 19 C-19.33 18.34 -19.66 17.68 -20 17 C-20.66 16.67 -21.32 16.34 -22 16 C-21.34 15.34 -20.68 14.68 -20 14 C-21.98 13.34 -23.96 12.68 -26 12 C-26 11.67 -26 11.34 -26 11 C-25.24976563 10.84144531 -24.49953125 10.68289062 -23.7265625 10.51953125 C-14.87686632 8.50215718 -7.19348614 5.62399826 0 0 Z " fill="#295B3E" transform="translate(204,196)"/>
<path d="M0 0 C0.33 0 0.66 0 1 0 C1.08636719 1.30453125 1.17273438 2.6090625 1.26171875 3.953125 C2.34060102 18.12515959 4.55846356 30.5195026 15 41 C20.04881113 45.13480222 25.3802802 48.69308907 31 52 C28 53 28 53 24.4375 51.625 C15.59685659 46.88719663 8.91329353 39.64061965 4 31 C3.59910156 30.30777344 3.19820312 29.61554688 2.78515625 28.90234375 C-0.98380025 21.94117498 -1.17884596 15.30578885 -0.5625 7.5625 C-0.51029297 6.83095703 -0.45808594 6.09941406 -0.40429688 5.34570312 C-0.27615124 3.56331378 -0.1390184 1.7815743 0 0 Z " fill="#274033" transform="translate(126,151)"/>
<path d="M0 0 C0.99 0.495 0.99 0.495 2 1 C2 1.66 2 2.32 2 3 C3.32 3 4.64 3 6 3 C8 6 8 6 8 9 C8.66 9 9.32 9 10 9 C10.85329541 12.09319586 11 14.79336115 11 18 C11.66 18 12.32 18 13 18 C13.1953125 20.05078125 13.390625 22.1015625 13.5859375 24.15234375 C13.72257813 24.76207031 13.85921875 25.37179688 14 26 C14.66 26.33 15.32 26.66 16 27 C16.625 30.0625 16.625 30.0625 17 33 C16.01 33.495 16.01 33.495 15 34 C12 27.5 12 27.5 12 23 C11.34 23 10.68 23 10 23 C9.78085938 22.48953125 9.56171875 21.9790625 9.3359375 21.453125 C6.82231252 15.69017993 4.05468245 10.09112961 1.171875 4.50390625 C0 2 0 2 0 0 Z " fill="#A9B65F" transform="translate(194,112)"/>
<path d="M0 0 C2.92173298 1.46086649 3.05834898 3.41230017 4.1875 6.4375 C9.65904837 19.86911438 17.87619009 28.03463186 31 34 C30.67 34.99 30.34 35.98 30 37 C20.9099159 33.21631017 14.97585756 28.8173246 9 21 C8.42378906 20.25492188 7.84757813 19.50984375 7.25390625 18.7421875 C3.30074534 13.2412803 1.04321666 7.43012303 -1 1 C-0.67 0.67 -0.34 0.34 0 0 Z " fill="#1D432B" transform="translate(123,170)"/>
<path d="M0 0 C4.7735475 4.7735475 4.17284378 13.94151624 4.3125 20.3125 C4.19004382 29.53439249 2.63573571 38.49553995 -1 47 C-1.66 47 -2.32 47 -3 47 C-2.33050256 41.53243761 -1.08056335 36.46997807 0.5546875 31.21875 C2.05711259 23.73298286 1.19550885 15.47193029 0 8 C-0.08101432 5.32652754 -0.04694018 2.67559 0 0 Z " fill="#B0C062" transform="translate(241,138)"/>
<path d="M0 0 C0.99 0.99 1.98 1.98 3 3 C0.03 2.67 -2.94 2.34 -6 2 C-6.33 1.01 -6.66 0.02 -7 -1 C-8.65 -0.34 -10.3 0.32 -12 1 C-12.33 0.01 -12.66 -0.98 -13 -2 C-21.415 -1.505 -21.415 -1.505 -30 -1 C-30.33 0.65 -30.66 2.3 -31 4 C-32.32 3.01 -33.64 2.02 -35 1 C-34.67 -0.32 -34.34 -1.64 -34 -3 C-23.516003 -5.92292718 -9.49335099 -5.45867682 0 0 Z " fill="#B2C553" transform="translate(189,45)"/>
<path d="M0 0 C0.33 0 0.66 0 1 0 C1.70641038 8.25715247 0.58884105 14.04109819 -4 21 C-8.94137498 26.82828844 -14.49291039 30.44680905 -22 32 C-24.69296792 32.14198425 -27.29973801 32.09474603 -30 32 C-30.33 31.34 -30.66 30.68 -31 30 C-30.09378906 29.92523438 -29.18757812 29.85046875 -28.25390625 29.7734375 C-20.19167105 28.90322799 -14.02968693 27.65628889 -8 22 C-6.09961951 19.31345292 -6.09961951 19.31345292 -5 17 C-4.34 17 -3.68 17 -3 17 C-2.01 11.39 -1.02 5.78 0 0 Z " fill="#2F2F30" transform="translate(195,153)"/>
<path d="M0 0 C2.62326486 2.34220077 4.44960971 4.62644857 6.125 7.6875 C7.61616373 11.04061719 7.61616373 11.04061719 10 12 C11 15 11 15 12 18 C12.66 18.33 13.32 18.66 14 19 C15.2890625 21.109375 15.2890625 21.109375 16.625 23.75 C17.07101563 24.61109375 17.51703125 25.4721875 17.9765625 26.359375 C19.04637762 29.11966134 19.20027848 31.06960963 19 34 C16.87836095 31.87836095 15.84034249 30.0208169 14.4375 27.375 C12.55352956 23.85825518 10.647054 20.35903642 8.67578125 16.890625 C8.27496338 16.18502441 7.87414551 15.47942383 7.46118164 14.75244141 C6.66707227 13.35758773 5.87076116 11.96398473 5.07202148 10.57177734 C3.11078311 7.11832028 1.35979392 3.74666623 0 0 Z " fill="#A8B75C" transform="translate(169,64)"/>
<path d="M0 0 C-1.9712419 1.00098698 -3.93893576 1.97329198 -5.96484375 2.859375 C-13.3759636 6.20538555 -17.10144254 11.11066664 -20.21875 18.4765625 C-21.58767564 22.89819231 -21.82787084 27.39554487 -22 32 C-24 30 -24 30 -24.3125 26.4375 C-23.9842563 17.32873732 -20.51460494 11.83281172 -14.44921875 5.1640625 C-9.90359896 1.14767755 -6.05250563 -0.43232183 0 0 Z " fill="#323234" transform="translate(164,130)"/>
<path d="M0 0 C2 1.375 2 1.375 4 3 C4 3.66 4 4.32 4 5 C4.99 5 5.98 5 7 5 C7.061875 5.598125 7.12375 6.19625 7.1875 6.8125 C7.8195071 9.2603675 7.8195071 9.2603675 10.5 10.3125 C13 12 13 12 13.8125 15.6875 C13.874375 16.780625 13.93625 17.87375 14 19 C13.34 19.33 12.68 19.66 12 20 C11.34 19.01 10.68 18.02 10 17 C9.236875 16.505 8.47375 16.01 7.6875 15.5 C3.67883635 11.77101056 1.89561656 7.08186567 0 2 C0 1.34 0 0.68 0 0 Z " fill="#AFC34F" transform="translate(188,99)"/>
<path d="M0 0 C0.66 0 1.32 0 2 0 C0.55686742 5.8441752 -0.82052189 10.85227354 -4 16 C-4.25196129 18.70953551 -4.25196129 18.70953551 -4 21 C-5.32 21.33 -6.64 21.66 -8 22 C-8.33 23.32 -8.66 24.64 -9 26 C-9.66 26 -10.32 26 -11 26 C-11.33 26.99 -11.66 27.98 -12 29 C-13.32 28.67 -14.64 28.34 -16 28 C-15.01 28 -14.02 28 -13 28 C-13 27.01 -13 26.02 -13 25 C-11.71034824 23.62437146 -10.37310707 22.29233607 -9 21 C-6.97768599 17.96652899 -6.11632725 15.449703 -5 12 C-4.14382493 9.86734573 -3.26889549 7.74212089 -2.375 5.625 C-1.92898437 4.56539062 -1.48296875 3.50578125 -1.0234375 2.4140625 C-0.68570313 1.61742187 -0.34796875 0.82078125 0 0 Z " fill="#B0CB4B" transform="translate(212,188)"/>
<path d="M0 0 C0.928125 0.33 1.85625 0.66 2.8125 1 C5.92029291 2.14967004 5.92029291 2.14967004 9 2 C9 2.66 9 3.32 9 4 C9.9590625 4.8971875 9.9590625 4.8971875 10.9375 5.8125 C13.25174456 8.26700181 13.63391473 9.70523261 14 13 C13.01 13 12.02 13 11 13 C10.443125 12.2575 9.88625 11.515 9.3125 10.75 C6.3565378 7.23480171 3.15156634 5.8037145 -1 4 C-0.67 2.68 -0.34 1.36 0 0 Z " fill="#434245" transform="translate(175,131)"/>
<path d="M0 0 C0.99 0.33 1.98 0.66 3 1 C3 1.66 3 2.32 3 3 C3.66 3 4.32 3 5 3 C6.77932777 10.9275407 7.81414507 18.87052199 7 27 C6.34 27.66 5.68 28.32 5 29 C5 23.06 5 17.12 5 11 C4.01 10.67 3.02 10.34 2 10 C0.47839986 6.3962102 0 3.94779314 0 0 Z " fill="#BDC47A" transform="translate(210,146)"/>
<path d="M0 0 C0.33 0 0.66 0 1 0 C3.01304085 9.00231869 2.65597389 19.15148804 0 28 C-0.99 28.66 -1.98 29.32 -3 30 C-4.17625306 26.47124082 -3.72990997 25.67440258 -2.5625 22.25 C-0.72121206 16.03461176 -0.79864806 10.40479418 -0.9921875 3.9921875 C-0.99605469 2.51105469 -0.99605469 2.51105469 -1 1 C-0.67 0.67 -0.34 0.34 0 0 Z " fill="#AABD47" transform="translate(217,157)"/>
<path d="M0 0 C2.72405034 1.35657707 4.24613651 3.21938653 6.203125 5.53515625 C6.90953125 6.36144531 7.6159375 7.18773437 8.34375 8.0390625 C8.87484375 8.67714844 9.4059375 9.31523438 9.953125 9.97265625 C9.623125 10.96265625 9.293125 11.95265625 8.953125 12.97265625 C8.953125 12.31265625 8.953125 11.65265625 8.953125 10.97265625 C8.293125 10.97265625 7.633125 10.97265625 6.953125 10.97265625 C6.953125 10.31265625 6.953125 9.65265625 6.953125 8.97265625 C6.334375 8.72515625 5.715625 8.47765625 5.078125 8.22265625 C2.60243813 6.76636986 2.00187498 5.59453119 0.953125 2.97265625 C-3.91658674 3.39006011 -5.76872384 5.51730773 -9.046875 8.97265625 C-9.706875 8.97265625 -10.366875 8.97265625 -11.046875 8.97265625 C-11.376875 9.96265625 -11.706875 10.95265625 -12.046875 11.97265625 C-13.366875 11.64265625 -14.686875 11.31265625 -16.046875 10.97265625 C-14.65573505 9.69668693 -13.25873087 8.42710977 -11.859375 7.16015625 C-11.08207031 6.45246094 -10.30476562 5.74476562 -9.50390625 5.015625 C-3.41683424 -0.04564473 -3.41683424 -0.04564473 0 0 Z " fill="#284E33" transform="translate(149.046875,46.02734375)"/>
<path d="M0 0 C-11.59153996 3.62235624 -22.22362976 3.7535563 -34 1 C-34 0.34 -34 -0.32 -34 -1 C-33.10861328 -0.89171875 -33.10861328 -0.89171875 -32.19921875 -0.78125 C-22.87796864 0.26249807 -14.228942 0.64462436 -5.09375 -1.7578125 C-3 -2 -3 -2 0 0 Z " fill="#2A4B33" transform="translate(173,225)"/>
<path d="M0 0 C1.140625 1.6796875 1.140625 1.6796875 2 4 C1.171875 6.4453125 1.171875 6.4453125 -0.25 9.125 C-2.8355882 14.3595832 -4.16333144 19.24322082 -5 25 C-5.66 25 -6.32 25 -7 25 C-6.27612432 16.0239416 -4.38942555 7.94277004 0 0 Z " fill="#64806F" transform="translate(134,129)"/>
<path d="M0 0 C0.66 0.33 1.32 0.66 2 1 C-2.55796018 5.55796018 -7.40759865 8.45120757 -13.125 11.3125 C-13.81787109 11.66183594 -14.51074219 12.01117188 -15.22460938 12.37109375 C-18.79684508 14.11431732 -22.0165619 15.46525831 -26 16 C-22.25 13 -22.25 13 -20 13 C-20 12.34 -20 11.68 -20 11 C-18.9275 10.54625 -17.855 10.0925 -16.75 9.625 C-14.7279514 8.76247625 -12.76858626 7.88098722 -10.8125 6.875 C-8.89818143 5.95084621 -7.07382543 5.44439116 -5 5 C-5 4.34 -5 3.68 -5 3 C-2.625 1.3125 -2.625 1.3125 0 0 Z " fill="#ADC158" transform="translate(218,212)"/>
<path d="M0 0 C0.66 1.32 1.32 2.64 2 4 C1.34 4 0.68 4 0 4 C0 4.66 0 5.32 0 6 C-0.94875 6.0825 -1.8975 6.165 -2.875 6.25 C-6.10461791 6.65074923 -6.10461791 6.65074923 -7.375 9.0625 C-7.58125 9.701875 -7.7875 10.34125 -8 11 C-8.66 10.67 -9.32 10.34 -10 10 C-10.125 4.25 -10.125 4.25 -9 2 C-8.34 2 -7.68 2 -7 2 C-6.67 2.66 -6.34 3.32 -6 4 C-4.02 2.68 -2.04 1.36 0 0 Z " fill="#A9BF46" transform="translate(179,23)"/>
<path d="M0 0 C3.5625 1.5625 3.5625 1.5625 6 3 C5.67 3.66 5.34 4.32 5 5 C3.02 4.01 1.04 3.02 -1 2 C-1.33 3.32 -1.66 4.64 -2 6 C-3.65 5.67 -5.3 5.34 -7 5 C-6.34 4.67 -5.68 4.34 -5 4 C-5 3.01 -5 2.02 -5 1 C-6.65 1.33 -8.3 1.66 -10 2 C-10.33 1.34 -10.66 0.68 -11 0 C-7.52446998 -1.73776501 -3.71864247 -0.72877918 0 0 Z " fill="#39373A" transform="translate(176,129)"/>
<path d="M0 0 C3.98108955 3.56549705 5.60736876 8.20104675 7.75 13 C8.17410156 13.91523437 8.59820312 14.83046875 9.03515625 15.7734375 C9.43089844 16.65257813 9.82664063 17.53171875 10.234375 18.4375 C10.77916504 19.64212891 10.77916504 19.64212891 11.33496094 20.87109375 C12 23 12 23 11 26 C0 5.93349169 0 5.93349169 0 0 Z " fill="#ADC165" transform="translate(229,111)"/>
<path d="M0 0 C3.71822947 3.58543556 6.82719209 7.49733987 10 11.5625 C11.88479868 13.85959839 13.86259447 15.93893038 16 18 C13.0280615 16.87548273 10.66559313 15.77706209 8 14 C8 13.34 8 12.68 8 12 C5.69 11.67 3.38 11.34 1 11 C1.20625 10.236875 1.4125 9.47375 1.625 8.6875 C2.33391203 5.78114056 2.33391203 5.78114056 0 3 C0 2.01 0 1.02 0 0 Z " fill="#356D4A" transform="translate(128,185)"/>
<path d="M0 0 C7.74890004 3.79537961 13.99098447 9.72520729 17 18 C16.5625 20.171875 16.5625 20.171875 16 22 C15.32880451 20.5437455 14.66318193 19.08492133 14 17.625 C13.62875 16.81289062 13.2575 16.00078125 12.875 15.1640625 C12 13 12 13 12 11 C11.34 11 10.68 11 10 11 C8.31066078 9.3563186 6.64740076 7.6857124 5 6 C3.6078125 4.9171875 3.6078125 4.9171875 2.1875 3.8125 C1.465625 3.214375 0.74375 2.61625 0 2 C0 1.34 0 0.68 0 0 Z " fill="#2E2D31" transform="translate(171,137)"/>
<path d="M0 0 C0.99 0.33 1.98 0.66 3 1 C2.67 1.99 2.34 2.98 2 4 C0.35 4.33 -1.3 4.66 -3 5 C-3.12375 5.94875 -3.2475 6.8975 -3.375 7.875 C-4 11 -4 11 -6 13 C-8 10 -8 10 -7.8359375 8.01953125 C-6.82204816 5.57008831 -5.63832144 4.39924797 -3.625 2.6875 C-3.01914063 2.15511719 -2.41328125 1.62273438 -1.7890625 1.07421875 C-0.90347656 0.54248047 -0.90347656 0.54248047 0 0 Z " fill="#B5C55E" transform="translate(179,15)"/>
<path d="M0 0 C0.86302734 -0.01224609 1.72605469 -0.02449219 2.61523438 -0.03710938 C3.85950195 -0.04000977 3.85950195 -0.04000977 5.12890625 -0.04296875 C5.88373291 -0.04707764 6.63855957 -0.05118652 7.41625977 -0.05541992 C9.4375 0.1875 9.4375 0.1875 12.4375 2.1875 C11.49898193 2.17178955 11.49898193 2.17178955 10.54150391 2.15576172 C7.7152099 2.11426809 4.88897989 2.08819527 2.0625 2.0625 C1.07765625 2.04574219 0.0928125 2.02898438 -0.921875 2.01171875 C-1.86289063 2.00527344 -2.80390625 1.99882813 -3.7734375 1.9921875 C-4.64274902 1.98171387 -5.51206055 1.97124023 -6.40771484 1.96044922 C-8.77595939 1.98154891 -8.77595939 1.98154891 -10.5625 4.1875 C-11.2050235 6.25624034 -11.2050235 6.25624034 -11.5625 8.1875 C-13.125 6.9375 -13.125 6.9375 -14.5625 5.1875 C-14.25 3 -14.25 3 -13.5625 1.1875 C-9.03629812 -0.09882669 -4.67459283 0.00350682 0 0 Z " fill="#B8C46D" transform="translate(168.5625,40.8125)"/>
<path d="M0 0 C0.33 0.99 0.66 1.98 1 3 C0.07421875 4.82421875 0.07421875 4.82421875 -1.3125 6.6875 C-1.76238281 7.31011719 -2.21226562 7.93273437 -2.67578125 8.57421875 C-3.11277344 9.04472656 -3.54976562 9.51523438 -4 10 C-4.66 10 -5.32 10 -6 10 C-6 10.99 -6 11.98 -6 13 C-6.99 13 -7.98 13 -9 13 C-9 13.66 -9 14.32 -9 15 C-9.99 15 -10.98 15 -12 15 C-12 15.66 -12 16.32 -12 17 C-13.32 17.33 -14.64 17.66 -16 18 C-15.34 17.34 -14.68 16.68 -14 16 C-13.54882812 15.54625 -13.09765625 15.0925 -12.6328125 14.625 C-11.4293454 13.42729112 -10.21398161 12.24150754 -8.9921875 11.0625 C-5.44402776 7.60599015 -2.24360407 4.48720813 0 0 Z " fill="#B4C36D" transform="translate(205,203)"/>
<path d="M0 0 C0.33 0.66 0.66 1.32 1 2 C1.99 2 2.98 2 4 2 C4 2.66 4 3.32 4 4 C2.20909747 4.19466332 0.41723495 4.38051213 -1.375 4.5625 C-2.87160156 4.71912109 -2.87160156 4.71912109 -4.3984375 4.87890625 C-7 5 -7 5 -9 4 C-9 3.34 -9 2.68 -9 2 C-5.62902617 0.50178941 -3.79557881 0 0 0 Z " fill="#C3C885" transform="translate(174,228)"/>
<path d="M0 0 C0.33 0 0.66 0 1 0 C1 1.65 1 3.3 1 5 C0.34 5 -0.32 5 -1 5 C-0.67 5.99 -0.34 6.98 0 8 C-0.66 8 -1.32 8 -2 8 C-2 8.66 -2 9.32 -2 10 C-1.34 10 -0.68 10 0 10 C-0.33 12.31 -0.66 14.62 -1 17 C-1.99 17 -2.98 17 -4 17 C-4.57374185 10.11509775 -3.4753869 5.97332123 0 0 Z " fill="#1E452D" transform="translate(130,128)"/>
<path d="M0 0 C0.99 0 1.98 0 3 0 C1.53967505 5.31027254 -0.98320986 9.46330032 -4 14 C-5.0546875 12.171875 -5.0546875 12.171875 -6 10 C-5.125 7.25 -5.125 7.25 -4 5 C-3.01 5.33 -2.02 5.66 -1 6 C-0.67 4.02 -0.34 2.04 0 0 Z " fill="#AFBF5B" transform="translate(236,186)"/>
<path d="M0 0 C0.33 0 0.66 0 1 0 C2.96399958 18.76321024 2.96399958 18.76321024 0 24 C-0.6976874 15.85315786 -1.28162626 8.11696631 0 0 Z " fill="#345540" transform="translate(93,146)"/>
<path d="M0 0 C0.99 0.33 1.98 0.66 3 1 C4.08754852 4.34964944 4.08735791 5.77612779 2.78515625 9.11328125 C1.93244141 10.69689453 1.93244141 10.69689453 1.0625 12.3125 C0.49660156 13.38113281 -0.06929687 14.44976562 -0.65234375 15.55078125 C-1.31943359 16.76314453 -1.31943359 16.76314453 -2 18 C-2.66 18 -3.32 18 -4 18 C-3.59215742 14.63529873 -2.68250199 12.36724446 -0.875 9.5625 C0.86459648 6.70906117 1.0083653 6.11502288 0.75 2.5625 C0.37875 1.2940625 0.37875 1.2940625 0 0 Z " fill="#274731" transform="translate(160,60)"/>
<path d="M0 0 C0.33 0.66 0.66 1.32 1 2 C-0.32 2.33 -1.64 2.66 -3 3 C-3.33 4.32 -3.66 5.64 -4 7 C-2.68 7.33 -1.36 7.66 0 8 C-3.63 8 -7.26 8 -11 8 C-10.67 6.68 -10.34 5.36 -10 4 C-7.71484375 2.734375 -7.71484375 2.734375 -4.9375 1.75 C-4.01839844 1.41484375 -3.09929687 1.0796875 -2.15234375 0.734375 C-1.44207031 0.49203125 -0.73179687 0.2496875 0 0 Z " fill="#B6C265" transform="translate(184,223)"/>
<path d="M0 0 C0.66 0.33 1.32 0.66 2 1 C-0.05803488 4.60156104 -2.24535883 7.88992126 -5 11 C-5.66 11 -6.32 11 -7 11 C-5.85485202 5.58657319 -4.65987191 3.0657052 0 0 Z " fill="#415F45" transform="translate(204,196)"/>
<path d="M0 0 C2 1.375 2 1.375 4 3 C4 3.66 4 4.32 4 5 C4.99 5 5.98 5 7 5 C7 7.64 7 10.28 7 13 C6.34 13 5.68 13 5 13 C4.16209211 11.21046815 3.32980604 9.41830305 2.5 7.625 C1.80390625 6.12839844 1.80390625 6.12839844 1.09375 4.6015625 C0 2 0 2 0 0 Z " fill="#B6C359" transform="translate(188,99)"/>
<path d="M0 0 C3.82990706 0.64743667 6.5283898 2.45311237 9.75 4.5625 C11.22726563 5.52349609 11.22726563 5.52349609 12.734375 6.50390625 C13.85585937 7.24447266 13.85585937 7.24447266 15 8 C12 9 12 9 10.09765625 8.328125 C2.52997106 4.31914014 2.52997106 4.31914014 0 2 C0 1.34 0 0.68 0 0 Z " fill="#253A2C" transform="translate(142,195)"/>
<path d="M0 0 C2 2 2 2 2.046875 4.2421875 C1.94890625 5.11101562 1.8509375 5.97984375 1.75 6.875 C1.61851562 8.17050781 1.61851562 8.17050781 1.484375 9.4921875 C1.00349575 11.98190102 0.2453726 13.805286 -1 16 C-2.08360869 9.93179132 -1.79074734 5.89893243 0 0 Z " fill="#B4CF4D" transform="translate(220,150)"/>
<path d="M0 0 C2.64179275 3.19184343 4.14549017 6.41581339 5.6875 10.25 C6.34298828 11.86648437 6.34298828 11.86648437 7.01171875 13.515625 C7.33785156 14.33546875 7.66398438 15.1553125 8 16 C6.125 15.75 6.125 15.75 4 15 C1.92872272 12.00967917 1.46557058 8.79342349 0.875 5.25 C0.70742187 4.26515625 0.53984375 3.2803125 0.3671875 2.265625 C0.24601563 1.51796875 0.12484375 0.7703125 0 0 Z " fill="#ABBD5A" transform="translate(218,87)"/>
<path d="M0 0 C0.99 0.33 1.98 0.66 3 1 C3.33 2.65 3.66 4.3 4 6 C3.34 6 2.68 6 2 6 C2.165 6.845625 2.33 7.69125 2.5 8.5625 C3.01329288 12.09138856 3.07121346 15.43932689 3 19 C0.0720281 13.92484871 -0.18380959 9.62309555 1 4 C0.63143136 1.76832815 0.63143136 1.76832815 0 0 Z " fill="#38373C" transform="translate(187,139)"/>
<path d="M0 0 C5.62879962 4.02057116 8.91587532 8.82081402 12 15 C12 15.66 12 16.32 12 17 C11.34 17 10.68 17 10 17 C9.566875 15.88625 9.13375 14.7725 8.6875 13.625 C7.30088881 9.82487666 7.30088881 9.82487666 4 8 C2.22470656 5.33705985 1.01431642 3.04294926 0 0 Z " fill="#ACBB59" transform="translate(199,53)"/>
<path d="M0 0 C0.33 0 0.66 0 1 0 C1.08082094 1.95766281 1.13910778 3.91626728 1.1875 5.875 C1.22230469 6.96554688 1.25710937 8.05609375 1.29296875 9.1796875 C1.19628906 10.11039063 1.09960938 11.04109375 1 12 C0.01 12.66 -0.98 13.32 -2 14 C-3.21065165 10.36804504 -2.62784815 8.93468371 -1.5625 5.3125 C-1.27503906 4.31863281 -0.98757812 3.32476562 -0.69140625 2.30078125 C-0.46324219 1.54152344 -0.23507813 0.78226563 0 0 Z " fill="#ACBD59" transform="translate(216,173)"/>
<path d="M0 0 C0.33 0.99 0.66 1.98 1 3 C1.99 3.33 2.98 3.66 4 4 C4 7.96 4 11.92 4 16 C1.90885653 12.86328479 1.21017805 10.50950138 0.3125 6.875 C0.04050781 5.79992187 -0.23148438 4.72484375 -0.51171875 3.6171875 C-0.67285156 2.75351563 -0.83398438 1.88984375 -1 1 C-0.67 0.67 -0.34 0.34 0 0 Z " fill="#C2DD5E" transform="translate(215,142)"/>
<path d="M0 0 C0.66 0 1.32 0 2 0 C2.1953125 2.05078125 2.390625 4.1015625 2.5859375 6.15234375 C2.72257813 6.76207031 2.85921875 7.37179688 3 8 C3.66 8.33 4.32 8.66 5 9 C5.625 12.0625 5.625 12.0625 6 15 C5.01 15.495 5.01 15.495 4 16 C1 9.5 1 9.5 1 5 C0.34 5 -0.32 5 -1 5 C-0.67 3.35 -0.34 1.7 0 0 Z " fill="#B6BD7F" transform="translate(205,130)"/>
<path d="M0 0 C0.66 0.99 1.32 1.98 2 3 C1.25 5.875 1.25 5.875 0 9 C-0.37125 9.94875 -0.7425 10.8975 -1.125 11.875 C-1.41375 12.57625 -1.7025 13.2775 -2 14 C-2.66 14 -3.32 14 -4 14 C-4 12.35 -4 10.7 -4 9 C-3.34 9 -2.68 9 -2 9 C-1.7834375 7.0509375 -1.7834375 7.0509375 -1.5625 5.0625 C-1.125 1.125 -1.125 1.125 0 0 Z " fill="#2F5340" transform="translate(133,124)"/>
<path d="M0 0 C0.66 0 1.32 0 2 0 C0.39516194 4.66861981 -1.97490194 9.09258167 -5 13 C-5.66 13 -6.32 13 -7 13 C-5.65846062 7.99971686 -3.51629997 3.80932497 0 0 Z " fill="#285137" transform="translate(132,59)"/>
<path d="M0 0 C0.33 0.99 0.66 1.98 1 3 C-0.5625 4.25 -0.5625 4.25 -3 5 C-5.57001015 3.93237266 -7.6530403 2.53455057 -10 1 C-6.41631413 -0.79184293 -3.82245883 -1.27415294 0 0 Z " fill="#2A553B" transform="translate(135,218)"/>
<path d="M0 0 C4.21198772 1.55999545 6.27071823 4.55248619 9 8 C9.66 8.66 10.32 9.32 11 10 C10.01 10.33 9.02 10.66 8 11 C6.84501103 9.92643323 5.70132133 8.84070212 4.5625 7.75 C3.92441406 7.14671875 3.28632813 6.5434375 2.62890625 5.921875 C0.91483694 3.89951984 0.40641122 2.58729395 0 0 Z " fill="#243B2E" transform="translate(133,185)"/>
<path d="M0 0 C0.93423645 3.01031744 1.04449911 3.86650268 0 7 C-0.22797562 9.73289293 -0.41668187 12.45042204 -0.5625 15.1875 C-0.60568359 15.93708984 -0.64886719 16.68667969 -0.69335938 17.45898438 C-0.79922685 19.30578375 -0.9000976 21.15286834 -1 23 C-1.66 22.67 -2.32 22.34 -3 22 C-2.89008434 18.89510601 -2.75946585 15.79142006 -2.625 12.6875 C-2.5940625 11.80642578 -2.563125 10.92535156 -2.53125 10.01757812 C-2.47324219 8.74624023 -2.47324219 8.74624023 -2.4140625 7.44921875 C-2.3826416 6.66893311 -2.3512207 5.88864746 -2.31884766 5.0847168 C-2 3 -2 3 0 0 Z " fill="#112D1D" transform="translate(127,144)"/>
<path d="M0 0 C0.66 0 1.32 0 2 0 C1.60079865 1.75406653 1.17984334 3.50318982 0.75 5.25 C0.51796875 6.22453125 0.2859375 7.1990625 0.046875 8.203125 C-1.11799266 11.31523411 -2.51330545 12.84212456 -5 15 C-5 11.37149374 -3.93046332 9.13832722 -2.5 5.8125 C-2.0359375 4.72582031 -1.571875 3.63914063 -1.09375 2.51953125 C-0.7328125 1.68808594 -0.371875 0.85664063 0 0 Z " fill="#AABB64" transform="translate(212,188)"/>
<path d="M0 0 C2.34211663 2.89399469 3.86862171 5.67155428 5.25 9.125 C5.60578125 9.99382812 5.9615625 10.86265625 6.328125 11.7578125 C7 14 7 14 6 16 C5 14.33333333 4 12.66666667 3 11 C2.443125 10.195625 1.88625 9.39125 1.3125 8.5625 C-0.25031615 5.51128752 -0.23598848 3.38250152 0 0 Z " fill="#A9B95A" transform="translate(211,70)"/>
<path d="M0 0 C0.33 0 0.66 0 1 0 C1.0810206 2.10353495 1.13919907 4.20795952 1.1875 6.3125 C1.22230469 7.48425781 1.25710937 8.65601563 1.29296875 9.86328125 C1 13 1 13 -0.51171875 14.91796875 C-1.00285156 15.27503906 -1.49398437 15.63210937 -2 16 C-1.85764543 14.27054347 -1.71095618 12.54144346 -1.5625 10.8125 C-1.48128906 9.84957031 -1.40007812 8.88664063 -1.31640625 7.89453125 C-1.02333849 5.21350398 -0.57296246 2.6337014 0 0 Z " fill="#BAD256" transform="translate(219,168)"/>
<path d="M0 0 C1.37095624 3.69037278 0.60010967 5.70883835 -0.9375 9.25 C-1.31777344 10.14203125 -1.69804687 11.0340625 -2.08984375 11.953125 C-2.39019531 12.62859375 -2.69054687 13.3040625 -3 14 C-3.66 13.67 -4.32 13.34 -5 13 C-4.54996653 7.37458159 -3.31558515 4.38512875 0 0 Z " fill="#244A34" transform="translate(143,99)"/>
<path d="M0 0 C0.33 0.66 0.66 1.32 1 2 C1.66 2.33 2.32 2.66 3 3 C3 3.66 3 4.32 3 5 C4.83273222 8.65357021 4.83273222 8.65357021 8 11 C8 11.66 8 12.32 8 13 C4.31353859 11.54144353 2.83856029 9.69770955 0.75 6.375 C-0.03117188 5.14910156 -0.03117188 5.14910156 -0.828125 3.8984375 C-1.21484375 3.27195313 -1.6015625 2.64546875 -2 2 C-1.34 2 -0.68 2 0 2 C0 1.34 0 0.68 0 0 Z " fill="#AEC156" transform="translate(160,48)"/>
<path d="M0 0 C0.33 0.66 0.66 1.32 1 2 C1.66 2.33 2.32 2.66 3 3 C3 5.31 3 7.62 3 10 C1.68 9.67 0.36 9.34 -1 9 C-0.67 6.03 -0.34 3.06 0 0 Z " fill="#B0C850" transform="translate(239,135)"/>
<path d="M0 0 C2.97 0.495 2.97 0.495 6 1 C6 2.65 6 4.3 6 6 C5.01 6 4.02 6 3 6 C0 2.66666667 0 2.66666667 0 0 Z " fill="#B5CB49" transform="translate(172,66)"/>
<path d="M0 0 C-0.33 1.98 -0.66 3.96 -1 6 C-2.32 6.33 -3.64 6.66 -5 7 C-4.34 6.01 -3.68 5.02 -3 4 C-4.98 3.34 -6.96 2.68 -9 2 C-9 1.67 -9 1.34 -9 1 C-5.94152152 0.45627049 -3.11227195 0 0 0 Z " fill="#325D43" transform="translate(187,206)"/>
<path d="M0 0 C0.66 0 1.32 0 2 0 C2 0.66 2 1.32 2 2 C-4.4 6.06153846 -4.4 6.06153846 -7.4375 5.75 C-7.953125 5.5025 -8.46875 5.255 -9 5 C-8.34 5 -7.68 5 -7 5 C-6.67 4.01 -6.34 3.02 -6 2 C-4.7934375 1.7834375 -4.7934375 1.7834375 -3.5625 1.5625 C-1.07896294 1.25864751 -1.07896294 1.25864751 0 0 Z " fill="#244C2E" transform="translate(185,216)"/>
<path d="M0 0 C1.32 0.33 2.64 0.66 4 1 C-0.625 6.875 -0.625 6.875 -4 8 C-4 6.68 -4 5.36 -4 4 C-2.68 4 -1.36 4 0 4 C0 2.68 0 1.36 0 0 Z " fill="#B2C464" transform="translate(224,204)"/>
<path d="M0 0 C1.32 0.66 2.64 1.32 4 2 C3.34 4.31 2.68 6.62 2 9 C1.34 8.34 0.68 7.68 0 7 C-0.66 6.67 -1.32 6.34 -2 6 C-1.34 4.02 -0.68 2.04 0 0 Z " fill="#1B5733" transform="translate(108,111)"/>
<path d="M0 0 C0.95465783 2.16967689 1.14401212 3.56328793 0.3984375 5.82421875 C-0.35870385 7.5684743 -1.17609198 9.28627131 -2 11 C-2.66 11 -3.32 11 -4 11 C-3.48964169 6.6109185 -2.47785723 3.66291938 0 0 Z " fill="#1E412D" transform="translate(151,87)"/>
<path d="M0 0 C0.66 0 1.32 0 2 0 C2 1.32 2 2.64 2 4 C1.05125 4.28875 0.1025 4.5775 -0.875 4.875 C-4.05211578 5.76825109 -4.05211578 5.76825109 -6 8 C-5.25 3.25 -5.25 3.25 -3 1 C-3 1.66 -3 2.32 -3 3 C-2.34 3 -1.68 3 -1 3 C-0.67 2.01 -0.34 1.02 0 0 Z " fill="#306443" transform="translate(124,81)"/>
<path d="M0 0 C1.32 1.65 2.64 3.3 4 5 C3.01 6.485 3.01 6.485 2 8 C2 7.01 2 6.02 2 5 C0.35 4.67 -1.3 4.34 -3 4 C-3 3.34 -3 2.68 -3 2 C-2.01 1.34 -1.02 0.68 0 0 Z " fill="#B6D54A" transform="translate(183,21)"/>
<path d="M0 0 C2 4 2 4 1.3125 6.6875 C0 9 0 9 -3 10 C-2.01 6.7 -1.02 3.4 0 0 Z " fill="#3B6149" transform="translate(138,112)"/>
<path d="M0 0 C0.75 1.625 0.75 1.625 1 4 C-2.17808219 9.5890411 -2.17808219 9.5890411 -5 11 C-4.67 9.68 -4.34 8.36 -4 7 C-3.34 7 -2.68 7 -2 7 C-1.855625 6.21625 -1.71125 5.4325 -1.5625 4.625 C-1 2 -1 2 0 0 Z " fill="#B2C167" transform="translate(195,20)"/>
<path d="M0 0 C0.99 0.33 1.98 0.66 3 1 C3 1.66 3 2.32 3 3 C3.66 3.33 4.32 3.66 5 4 C4.01 4.99 3.02 5.98 2 7 C0 4 0 4 0 0 Z " fill="#B1B677" transform="translate(210,146)"/>
<path d="M0 0 C0.66 0 1.32 0 2 0 C1.45276317 3.37462715 0.9451 5.08235 -1 8 C-1.66 8 -2.32 8 -3 8 C-1.125 2.25 -1.125 2.25 0 0 Z " fill="#465A4E" transform="translate(138,123)"/>
<path d="M0 0 C0.66 0 1.32 0 2 0 C2 1.32 2 2.64 2 4 C-2.455 4.495 -2.455 4.495 -7 5 C-6.67 4.34 -6.34 3.68 -6 3 C-2.9375 2.375 -2.9375 2.375 0 2 C0 1.34 0 0.68 0 0 Z " fill="#B0C957" transform="translate(193,218)"/>
<path d="M0 0 C0.12375 0.639375 0.2475 1.27875 0.375 1.9375 C0.58125 2.618125 0.7875 3.29875 1 4 C1.66 4.33 2.32 4.66 3 5 C2.34 6.32 1.68 7.64 1 9 C0.34 8.67 -0.32 8.34 -1 8 C-1.125 2.25 -1.125 2.25 0 0 Z " fill="#A8B864" transform="translate(170,25)"/>
<path d="M0 0 C3.96 1.98 3.96 1.98 8 4 C5 5 5 5 1.8125 3.5625 C0.884375 3.046875 -0.04375 2.53125 -1 2 C-0.67 1.34 -0.34 0.68 0 0 Z " fill="#3D4C3E" transform="translate(149,199)"/>
<path d="M0 0 C0.66 0 1.32 0 2 0 C2 0.66 2 1.32 2 2 C3.32 2.33 4.64 2.66 6 3 C5.67 4.65 5.34 6.3 5 8 C2.27573689 5.64722731 1.1858237 3.37503669 0 0 Z " fill="#B3BC75" transform="translate(197,119)"/>
<path d="M0 0 C4.875 4.625 4.875 4.625 6 8 C5.01 8 4.02 8 3 8 C0 2.25 0 2.25 0 0 Z " fill="#ABB864" transform="translate(188,99)"/>
<path d="M0 0 C0.33 0.66 0.66 1.32 1 2 C0.34 2.66 -0.32 3.32 -1 4 C-1 4.33 -1 4.66 -1 5 C-2.65 5 -4.3 5 -6 5 C-5.67 4.01 -5.34 3.02 -5 2 C-2.4375 0.8125 -2.4375 0.8125 0 0 Z " fill="#B9CD56" transform="translate(177,30)"/>
</svg>
